<svg xmlns="http://www.w3.org/2000/svg" viewBox="0 0 512 512" fill="url(#grad1)">
  <defs>
    <linearGradient id="grad1" x1="0%" y1="0%" x2="100%" y2="100%">
      <stop offset="0%" style="stop-color:#00f5ff;stop-opacity:1" />
      <stop offset="50%" style="stop-color:#bd00ff;stop-opacity:1" />
      <stop offset="100%" style="stop-color:#d6008c;stop-opacity:1" />
    </linearGradient>
  </defs>
  <path d="M461.81,53.81a4.4,4.4,0,0,0-3.3-3.3c-54.81-12.75-121,9.65-171,46.54-52.54,39-81.54,93.65-78.34,142.15-2.61,4-5.22,8-7.83,12l-1.46,2.23c-15.69,24-34.42,47-53.15,69.58A59.94,59.94,0,0,0,135,335.54q10-14.77,20.59-29.08c3.21-4.32,6.42-8.63,9.75-12.94a4.39,4.39,0,0,0-4.06-7.39c-48.6,8.75-93.5,35.15-117,76.55-3,5.2,1,11.59,6.72,10.66,41.93-6.84,77.92-23.75,108-46.73L275.54,449.88l1.79.62c43.68,15.11,85.66,3.09,112.55-25.09,3.78-4,8.19-7.31,12.09-11.09a4.39,4.39,0,0,0-2.3-7.29,149.33,149.33,0,0,1-24.19-7.34c-11.83-4.54-23.46-10-34.56-16.14a51.64,51.64,0,0,1-13.78-10.42c-2.88-3-5.59-6.19-8.15-9.39,46-5,100.09-32.9,136.09-84.4,36.54-52.26,56.74-123.63,44.24-178.63Zm-207,249.09-6.5,6.5a18.66,18.66,0,0,1-26.38-26.38l6.5-6.5a18.66,18.66,0,0,1,26.38,26.38Z"/>
</svg>
